<svg width="1000" height="1000" viewBox="0 0 1000 1000" fill="none" xmlns="http://www.w3.org/2000/svg">
<g clip-path="url(#clip0_61_5)">
<path d="M503.547 976.924C501.991 977.822 500.09 977.822 498.539 976.924L498.492 976.899L84.4553 739.458C83.402 738.603 82.7374 737.3 82.6935 735.872V260.58C82.7688 259.093 83.4647 257.736 84.5619 256.821L497.27 18.1442L497.349 18.0987L497.427 18.0523C498.875 17.192 500.663 17.192 502.112 18.0523L502.187 18.0969L502.263 18.1407L915.314 257.26L915.328 257.268C916.772 258.102 917.709 259.69 917.693 261.457L917.693 261.526V261.595V735.567C917.56 737.026 916.72 738.292 915.508 738.971L915.417 739.021L915.327 739.071L503.547 976.924Z" fill="#1C2127"/>
<path d="M547.306 478.799C548.393 478.799 548.937 478.799 550.025 478.256L559.267 472.819C561.986 471.187 562.53 467.925 561.442 465.207C559.811 462.488 556.549 461.945 553.83 463.032L544.588 468.469C541.869 470.1 541.325 473.362 542.413 476.081C543.5 477.712 545.131 478.799 547.306 478.799Z" fill="#F7C16B"/>
<path d="M594.608 451.614C595.695 451.614 596.239 451.614 597.326 451.071L606.569 445.634C609.288 444.002 609.831 440.74 608.744 438.022C607.113 435.303 603.851 434.76 601.132 435.847L591.889 441.284C589.171 442.915 588.627 446.177 589.715 448.896C590.802 450.527 592.433 451.614 594.608 451.614Z" fill="#F7C16B"/>
<path d="M453.245 467.382L444.002 461.945C441.284 460.313 438.021 461.401 436.39 464.119C434.759 466.838 435.847 470.1 438.565 471.731L447.808 477.168C448.895 477.712 449.439 477.712 450.527 477.712C452.158 477.712 454.333 476.624 455.42 474.993C456.507 472.275 455.42 469.013 453.245 467.382Z" fill="#F7C16B"/>
<path d="M405.4 440.74L396.157 435.303C393.439 433.672 390.177 434.76 388.546 437.478C386.915 440.197 388.002 443.459 390.72 445.09L399.963 450.527C401.051 451.071 401.594 451.071 402.682 451.071C404.313 451.071 406.488 449.983 407.575 448.352C409.206 445.634 408.119 442.371 405.4 440.74Z" fill="#F7C16B"/>
<path d="M500.004 603.307C496.742 603.307 494.567 605.481 494.567 608.744V619.618C494.567 622.88 496.742 625.055 500.004 625.055C503.267 625.055 505.441 622.88 505.441 619.618V608.744C505.441 605.481 503.267 603.307 500.004 603.307Z" fill="#F7C16B"/>
<path d="M500.004 548.937C496.742 548.937 494.567 551.111 494.567 554.374V565.248C494.567 568.51 496.742 570.685 500.004 570.685C503.267 570.685 505.441 568.51 505.441 565.248V554.374C505.441 551.111 503.267 548.937 500.004 548.937Z" fill="#F7C16B"/>
<path d="M500.004 450.527C503.267 450.527 505.441 448.352 505.441 445.09V434.216C505.441 430.954 503.267 428.779 500.004 428.779C496.742 428.779 494.567 430.954 494.567 434.216V445.09C494.567 447.808 496.742 450.527 500.004 450.527Z" fill="#F7C16B"/>
<path d="M500.004 396.157C503.267 396.157 505.441 393.982 505.441 390.72V379.846C505.441 376.584 503.267 374.409 500.004 374.409C496.742 374.409 494.567 376.584 494.567 379.846V390.72C494.567 393.438 496.742 396.157 500.004 396.157Z" fill="#F7C16B"/>
<path d="M607.113 553.83L597.87 548.393C595.152 546.762 591.89 547.849 590.259 550.568C588.627 553.286 589.715 556.548 592.433 558.179L601.676 563.616C602.764 564.16 603.307 564.16 604.395 564.16C606.026 564.16 608.201 563.073 609.288 561.442C610.375 558.723 609.832 555.461 607.113 553.83Z" fill="#F7C16B"/>
<path d="M559.811 527.189L550.568 521.752C547.849 520.12 544.587 521.208 542.956 523.926C541.325 526.645 542.412 529.907 545.131 531.538L554.374 536.975C555.461 537.519 556.005 537.519 557.092 537.519C558.723 537.519 560.898 536.432 561.985 534.8C563.073 532.082 561.985 528.82 559.811 527.189Z" fill="#F7C16B"/>
<path d="M400.507 550.024L391.264 555.461C388.546 557.092 387.459 560.354 389.09 563.073C390.177 564.704 391.808 565.791 393.983 565.791C395.07 565.791 395.614 565.791 396.701 565.248L405.944 559.811C408.663 558.179 409.75 554.917 408.119 552.199C406.488 549.48 402.682 548.393 400.507 550.024Z" fill="#F7C16B"/>
<path d="M447.809 523.383L438.566 528.82C435.848 530.451 434.76 533.713 436.391 536.431C437.479 538.063 439.11 539.15 441.285 539.15C442.372 539.15 442.916 539.15 444.003 538.606L453.246 533.169C455.965 531.538 457.052 528.276 455.421 525.557C453.79 522.839 450.528 521.752 447.809 523.383Z" fill="#F7C16B"/>
<path d="M750.65 500.004C771.854 471.731 787.078 443.459 794.146 416.817C802.301 385.827 800.126 359.185 787.078 336.894C762.067 294.485 701.173 278.174 625.055 286.873C594.608 217.823 550.024 173.784 500.004 173.784C449.984 173.784 405.4 217.823 374.953 286.873C298.835 278.174 237.941 294.485 212.93 336.894C199.882 359.185 197.707 385.827 205.862 416.817C212.93 444.002 228.154 472.275 249.358 500.004C228.154 528.276 212.93 556.548 205.862 583.19C197.707 614.181 199.882 640.822 212.93 663.114C233.591 698.454 278.718 715.309 336.894 715.309C349.399 715.309 361.904 714.221 375.497 713.134C405.944 782.184 450.527 826.224 500.548 826.224C550.568 826.224 595.152 782.184 625.599 713.134C638.648 714.765 651.696 715.309 664.201 715.309C722.377 715.309 767.504 697.91 788.165 663.114C801.214 640.822 803.389 614.181 795.233 583.19C787.078 556.548 772.398 528.276 750.65 500.004ZM664.201 295.029C718.028 295.029 759.349 310.796 777.835 342.874C789.252 362.447 791.427 386.37 783.815 414.099C777.291 438.565 763.155 465.207 743.582 491.304C726.183 469.556 704.435 447.808 679.969 427.148C682.144 422.798 683.775 417.905 683.775 413.012C683.775 396.701 670.182 383.108 653.871 383.108C647.89 352.117 639.191 323.301 628.861 297.203C641.366 295.572 652.784 295.029 664.201 295.029ZM672.901 586.452C672.901 596.782 664.201 605.481 653.871 605.481C643.541 605.481 634.842 596.782 634.842 586.452C634.842 576.122 643.541 567.422 653.871 567.422C664.201 567.422 672.901 576.122 672.901 586.452ZM652.24 556.548C636.473 557.636 623.968 570.685 623.968 586.452C623.968 591.345 625.055 596.238 627.23 600.044C611.463 610.918 594.608 621.792 577.209 631.579C559.811 641.366 542.413 650.065 525.014 658.22C519.577 650.065 510.334 644.628 500.004 644.628C489.674 644.628 480.431 650.065 474.994 658.22C457.595 650.065 440.197 641.366 422.799 631.579C405.4 621.792 388.546 611.462 372.778 600.044C374.953 595.695 376.04 591.345 376.04 586.452C376.04 570.685 363.535 557.636 347.768 556.548C346.137 538.063 345.05 519.577 345.05 500.004C345.05 480.974 346.137 461.945 347.768 443.459C363.535 442.371 376.04 429.323 376.04 413.555C376.04 408.662 374.953 403.769 372.778 399.963C388.546 389.089 405.4 378.215 422.799 368.428C440.197 358.642 457.595 349.942 474.994 341.787C480.431 349.942 489.674 355.379 500.004 355.379C510.334 355.379 519.577 349.942 525.014 341.787C542.413 349.942 559.811 358.642 577.209 368.428C594.608 378.215 610.919 388.545 626.686 399.419C625.055 403.225 623.968 407.575 623.968 412.468C623.968 428.235 636.473 441.284 652.24 442.371C653.871 460.857 654.959 480.43 654.959 500.004C654.415 519.033 653.871 538.063 652.24 556.548ZM519.034 674.531C519.034 684.862 510.334 693.561 500.004 693.561C489.674 693.561 480.975 684.862 480.975 674.531C480.975 664.201 489.674 655.502 500.004 655.502C510.334 655.502 519.034 664.201 519.034 674.531ZM346.137 567.422C356.467 567.422 365.166 576.122 365.166 586.452C365.166 596.782 356.467 605.481 346.137 605.481C335.807 605.481 327.107 596.782 327.107 586.452C327.107 576.122 335.263 567.422 346.137 567.422ZM327.107 413.555C327.107 403.225 335.807 394.526 346.137 394.526C356.467 394.526 365.166 403.225 365.166 413.555C365.166 423.886 356.467 432.585 346.137 432.585C335.263 432.585 327.107 423.886 327.107 413.555ZM480.975 325.476C480.975 315.146 489.674 306.446 500.004 306.446C510.334 306.446 519.034 315.146 519.034 325.476C519.034 335.806 510.334 344.505 500.004 344.505C489.674 344.505 480.975 335.806 480.975 325.476ZM653.871 432.041C643.541 432.041 634.842 423.342 634.842 413.012C634.842 402.681 643.541 393.982 653.871 393.982C664.201 393.982 672.901 402.681 672.901 413.012C672.901 423.342 664.745 432.041 653.871 432.041ZM633.211 390.72C617.443 379.846 600.045 368.972 582.646 359.185C564.704 348.855 547.306 340.156 529.364 332C529.908 329.825 529.908 327.651 529.908 325.476C529.908 323.845 529.908 322.214 529.364 320.039C560.355 309.165 590.258 302.097 618.531 298.291C628.861 323.845 637.56 353.205 643.541 384.739C639.735 385.827 636.473 388.001 633.211 390.72ZM470.644 332C452.702 340.156 435.304 348.855 417.362 359.185C399.42 369.516 382.565 379.846 366.254 391.264C363.535 388.545 359.729 386.37 356.467 385.283C362.448 353.205 371.147 323.845 381.477 298.291C409.206 302.097 439.653 309.709 470.644 320.039C470.101 321.67 470.101 323.301 470.101 325.476C470.101 327.651 470.101 329.825 470.644 332ZM326.02 435.847C329.282 438.565 333.088 440.74 337.438 442.371C335.807 460.857 334.719 480.43 334.719 500.004C334.719 519.577 335.807 539.15 337.438 557.636C333.088 558.723 329.282 560.898 326.02 564.16C302.097 543.5 280.893 521.752 263.495 500.004C280.893 478.256 302.097 456.508 326.02 435.847ZM366.254 608.744C382.565 620.161 399.42 630.492 417.362 640.822C435.304 651.152 452.702 659.851 470.644 668.007C470.101 670.182 470.101 672.356 470.101 674.531C470.101 676.162 470.101 677.793 470.644 679.968C439.653 690.842 409.75 697.91 381.477 701.716C371.147 675.619 362.448 646.259 356.467 614.724C359.729 613.637 363.535 611.462 366.254 608.744ZM529.364 668.007C547.306 659.851 564.704 651.152 582.646 640.822C600.589 630.492 617.443 620.161 633.754 608.744C636.473 611.462 640.279 613.637 643.541 614.724C637.56 646.803 628.861 676.162 618.531 701.716C590.802 697.91 560.355 690.299 529.364 679.968C529.908 678.337 529.908 676.706 529.908 674.531C529.908 672.356 529.908 670.182 529.364 668.007ZM673.988 564.16C670.726 561.442 666.92 559.267 662.57 557.636C664.201 539.15 665.289 519.577 665.289 500.004C665.289 479.887 664.201 460.313 662.57 441.284C666.376 440.197 670.182 438.022 673.444 435.303C697.911 455.964 719.115 477.712 736.514 500.004C719.115 521.752 697.911 543.5 673.988 564.16ZM500.004 184.658C545.131 184.658 585.909 224.891 614.181 288.504C586.452 292.31 556.549 299.922 525.558 310.252C520.121 301.553 510.878 295.572 499.46 295.572C488.586 295.572 478.8 301.553 473.363 310.252C442.916 299.922 413.012 292.31 384.74 288.504C414.099 224.891 454.877 184.658 500.004 184.658ZM216.193 413.555C208.581 385.827 210.756 361.904 222.173 342.331C241.203 310.252 282.524 294.485 335.807 294.485C346.681 294.485 358.642 295.029 370.603 296.66C360.273 322.757 351.574 351.573 345.593 383.108C329.282 383.108 316.233 396.701 316.233 413.012C316.233 417.905 317.321 422.254 319.496 426.604C295.029 447.265 273.825 468.469 256.426 490.217C236.31 464.663 222.717 438.565 216.193 413.555ZM222.173 657.677C210.756 638.103 208.581 614.181 216.193 586.452C222.717 561.985 236.853 535.344 256.426 509.246C273.825 530.994 295.029 552.742 319.496 572.859C317.321 577.209 316.233 581.559 316.233 586.452C316.233 602.763 329.282 616.355 345.593 616.355C351.574 647.89 360.273 677.25 370.603 702.804C300.466 710.959 245.009 696.279 222.173 657.677ZM500.004 815.35C454.877 815.35 414.099 775.116 385.827 711.503C413.556 707.697 443.459 700.085 474.45 689.755C479.887 698.454 489.13 704.435 500.548 704.435C511.422 704.435 521.208 698.454 526.645 689.755C557.093 700.085 586.996 707.697 615.268 711.503C585.909 775.116 545.131 815.35 500.004 815.35ZM777.835 657.677C754.999 696.279 699.542 710.959 629.405 703.347C639.735 677.25 648.434 648.434 654.415 616.899C670.726 616.355 683.775 603.307 683.775 586.996C683.775 582.102 682.687 577.753 680.512 573.403C704.979 552.742 726.183 531.538 743.582 509.79C763.155 535.888 777.291 562.529 783.815 586.996C791.427 614.181 789.252 638.103 777.835 657.677Z" fill="#F7C16B"/>
<path d="M500.004 470.1C483.149 470.1 470.101 483.693 470.101 500.004C470.101 516.315 483.693 529.907 500.004 529.907C516.315 529.907 529.908 516.315 529.908 500.004C529.908 483.693 516.859 470.1 500.004 470.1ZM500.004 519.033C489.674 519.033 480.975 510.334 480.975 500.004C480.975 489.673 489.674 480.974 500.004 480.974C510.334 480.974 519.034 489.673 519.034 500.004C519.034 510.334 510.334 519.033 500.004 519.033Z" fill="#F7C16B"/>
</g>
<defs>
<clipPath id="clip0_61_5">
<rect width="1000" height="1000" fill="white"/>
</clipPath>
</defs>
</svg>
